<svg width="56" height="30" viewBox="0 0 56 30" fill="none" xmlns="http://www.w3.org/2000/svg">
<path d="M52.3955 11.7786L40.9084 9.70774C40.791 9.70774 40.6741 9.59258 40.6152 9.53521C39.5016 8.21229 32.4104 0.90683 27.7801 0.90683H11.5457C7.73645 0.90683 4.27827 4.4157 2.10988 7.34925C0.70319 9.19018 0 11.4336 0 13.7342V20.407C0 22.5352 1.75834 24.261 3.92673 24.261H4.80568C5.50885 27.0219 8.02921 29.0928 11.0769 29.0928C14.1246 29.0928 16.6446 27.0219 17.3482 24.261H38.5056C39.2088 27.0219 41.7291 29.0928 44.7769 29.0928C47.8246 29.0928 50.3445 27.0219 51.0481 24.261H51.1654C53.0995 24.261 54.799 22.8229 55.0337 20.9247L55.6784 16.0929C55.8533 14.0221 54.447 12.1237 52.3956 11.7787L52.3955 11.7786ZM10.9598 26.0441C9.08409 26.0441 7.5605 24.5487 7.5605 22.7078C7.5605 20.867 9.0842 19.3715 10.9598 19.3715C12.8353 19.3715 14.359 20.867 14.359 22.7078C14.4175 24.5483 12.8938 26.0441 10.9598 26.0441ZM18.6373 10.6281H8.43941C7.91203 10.6281 7.56046 10.1105 7.85316 9.65027C9.37686 7.00403 13.1866 4.41562 15.0618 4.41562H17.6407C17.9923 4.41562 18.2854 4.64554 18.3438 4.99101L19.3401 9.8228C19.3994 10.2257 19.0474 10.6281 18.6374 10.6281L18.6373 10.6281ZM35.0475 10.6281H23.7948C23.4432 10.6281 23.1501 10.3982 23.0916 10.0527L22.0953 5.22093C22.0369 4.81807 22.3296 4.41563 22.7985 4.41563H27.7799C29.4794 4.41563 32.996 7.06187 35.5164 9.41999C35.9849 9.88022 35.6922 10.6282 35.0475 10.6282V10.6281ZM44.6592 26.0441C42.7835 26.0441 41.2599 24.5487 41.2599 22.7078C41.2599 20.867 42.7836 19.3715 44.6592 19.3715C46.5347 19.3715 48.0584 20.867 48.0584 22.7078C48.0584 24.5483 46.5344 26.0441 44.6592 26.0441Z" fill="#596B86"/>
</svg>
