<svg width="47" height="19" viewBox="0 0 47 19" fill="none" xmlns="http://www.w3.org/2000/svg">
<path d="M3.74653 3.01573L0.979251 10.8497C0.827373 11.2806 0.751617 11.7358 0.751617 12.183V18.2448H4.92819C6.19379 16.8041 8.06678 15.8929 10.1509 15.8929C12.2349 15.8929 14.108 16.8121 15.3736 18.2448H33.489C34.7546 16.8041 36.6276 15.8929 38.7117 15.8929C40.7958 15.8929 42.6688 16.8121 43.9344 18.2448H46.8369V15.777C46.8369 15.4625 46.8031 15.1643 46.7441 14.8662C46.3389 12.8788 44.6177 11.3465 42.4917 11.1978L36.2988 10.767L31.3713 2.31992C30.629 1.06107 29.262 0.274506 27.777 0.274506H7.6618C5.88974 0.282893 4.32889 1.37593 3.74666 3.01572L3.74653 3.01573ZM18.5714 4.15033C18.5714 3.62878 19.0018 3.19797 19.5417 3.19797H27.7597C28.1816 3.19797 28.5696 3.42139 28.7806 3.77747L32.3834 9.9553C32.7547 10.5931 32.2905 11.3797 31.5397 11.3797H19.542C19.0106 11.3797 18.5716 10.9573 18.5716 10.4273L18.5714 4.15033ZM15.9645 4.15033V10.4356C15.9645 10.9572 15.5341 11.388 14.9942 11.388H5.29934C4.63277 11.388 4.16858 10.7421 4.38804 10.1291L6.55638 3.9761C6.7168 3.5125 7.16391 3.20597 7.66148 3.20597H14.9937C15.5341 3.19797 15.9645 3.62039 15.9645 4.15033H15.9645Z" fill="#596B86"/>
</svg>
