<svg width="29" height="28" viewBox="0 0 29 28" fill="none" xmlns="http://www.w3.org/2000/svg">
<path fill-rule="evenodd" clip-rule="evenodd" d="M2.93985 5.17635H26.4478V1.1048C26.4478 0.731534 26.7592 0.426285 27.1396 0.426285C27.5199 0.426285 27.8313 0.73112 27.8313 1.1048V5.17635C28.2116 5.17635 28.5226 5.48202 28.5226 5.85528C28.5226 6.22855 28.212 6.5338 27.8313 6.5338V13.3202C28.2116 13.3202 28.5226 13.625 28.5226 13.9987C28.5226 14.372 28.212 14.6777 27.8313 14.6777V21.4636C28.2116 21.4636 28.5226 21.7693 28.5226 22.1422V22.1426C28.5226 22.5154 28.212 22.8211 27.8313 22.8211V26.8934C27.8313 27.2662 27.5199 27.5719 27.1396 27.5719C26.7592 27.5719 26.4478 27.2662 26.4478 26.8934V22.8211L2.93985 22.8207V26.893C2.93985 27.2658 2.62842 27.5715 2.24853 27.5715C1.86823 27.5715 1.55679 27.2658 1.55679 26.893V22.8207C1.17649 22.8207 0.865479 22.515 0.865479 22.1422V22.1417C0.865479 21.7689 1.17607 21.4632 1.55679 21.4632V14.6764C1.17649 14.6764 0.865479 14.3707 0.865479 13.9975C0.865479 13.6242 1.17607 13.3189 1.55679 13.3189V6.53296C1.17649 6.53296 0.865479 6.22812 0.865479 5.85444C0.865479 5.48118 1.17607 5.17551 1.55679 5.17551V1.10396C1.55679 0.730695 1.86823 0.425446 2.24853 0.425446C2.62842 0.425446 2.93985 0.730281 2.93985 1.10396V5.17635ZM26.4467 6.53294H2.93985V13.3194H26.4478L26.4467 6.53294ZM26.4467 14.6764H2.93985V21.4624H26.4478L26.4467 14.6764Z" fill="#596B86"/>
</svg>
